<svg viewBox="0 0 64 64" xmlns="http://www.w3.org/2000/svg"><g id="SVGRepo_bgCarrier" stroke-width="0"></g><g id="SVGRepo_tracerCarrier" stroke-linecap="round" stroke-linejoin="round"></g><g id="SVGRepo_iconCarrier"><path d="m57.92 32.3c-.19-6.22-.88-11.19-8.13-18.25s-10.79-7.37-15.79-7.05c-13.9 1-17.53 4.34-21.9 9.41s-6.1 10.77-6.03 14.14 1.75 11.94 6.29 17.45 8.81 8 18.28 9 16.84-4.22 20.9-8.19a22.62 22.62 0 0 0 6.38-16.51zm-3.92-9.3c.18 0 .78 1.78 1.25 3.66a6.62 6.62 0 0 1 .25 2.81 5.71 5.71 0 0 1 -1.91-2.85c-.45-1.76.17-3.62.41-3.62zm.5 18.28c-1.71 3.43-6.5 9.52-10.8 11.15s-11.88 5.06-19.7 1.43-10.14-7.06-13-12.86-3.11-11.64-1.71-15.85 5.91-9.75 9.57-12.25 8.53-3.35 11.71-3.66c4.19-.41 8.29-.53 11.88 1.31s8.94 8 9.81 9.06a7.75 7.75 0 0 1 1.28 2.19s-1.75 1.2-1.09 4.25 1.81 4.31 2.31 4.72a4.31 4.31 0 0 0 1.1.63s.31 6.43-1.38 9.87zm-5.5-22.7c.31.22.16-.37.22-.59a10.62 10.62 0 0 0 -2.78-2.34.78.78 0 0 0 -.25.68c.04.16 2.48 2.03 2.81 2.25zm-2.66.28s-.31.57-.21.69 3.5 3.06 3.5 3.06a.88.88 0 0 0 .18-.59 25.44 25.44 0 0 0 -3.49-3.16zm2.66 5.85c.09 0 .19-.41.19-.69a24.12 24.12 0 0 0 -3.35-2.78c-.18-.09-.43.62-.5.91s3.55 2.59 3.66 2.56zm-7.22-4.44a2.47 2.47 0 0 0 -3.49-2.27c-2.62 1-2.4 4.5-.84 5.28a3.26 3.26 0 0 0 4.31-3.01zm-3.24-1.49a1.71 1.71 0 0 1 2.4 1.6 2.26 2.26 0 0 1 -3 2.05c-1.08-.54-1.24-2.94.58-3.65zm-24.9 8.74c.31 0 .09-.75.59-2.62a8.78 8.78 0 0 1 2.06-3.47c.1-.1-1-.67-1.09-.63-.34.13-1.28 2-1.81 3.19a11.23 11.23 0 0 0 -.82 3.34c.07.19.75.22 1.07.19zm18.36-1.12c-.62-5-4.86-6.34-7.44-5.69-7.56 1.9-5.74 8.29-1.7 10.72s9.78-.07 9.14-5.03zm-8.23 3.43c-2.73-1.67-4-6 1.16-7.26a4.16 4.16 0 0 1 5 3.85c.47 3.37-3.42 5.08-6.15 3.41zm-6.77 5.6c-.06-2-1.6-2.31-2.15-2.07-2.94 1.29-2.16 4.54-.66 4.91s2.88-.81 2.81-2.84zm-2.59 2.06a1.65 1.65 0 0 1 .62-3c.63-.2 1.35.53 1.25 1.44s-.89 1.93-1.86 1.56zm15.59 2.41a2.32 2.32 0 0 0 .72 4.46 2.5 2.5 0 0 0 2.41-3.25c-.31-1.5-1.71-1.95-3.13-1.21zm.22 3.5c-1-.5-1.09-1.82.22-2.6a1.21 1.21 0 0 1 1.94 1.06 1.57 1.57 0 0 1 -2.12 1.54zm-8.75.43c-.78-.62-.62-1.18-.75-1.31a3.06 3.06 0 0 0 -.78.09c-.22.1.25 1.13.75 1.6a4.06 4.06 0 0 0 1.5.94c.22 0 .28-.25.34-.47s-.24-.22-1.02-.85zm-1.47 1.07a6.38 6.38 0 0 1 -1.4-2.13s-.69 0-.85.19.47 1.15 1.07 1.84a14.45 14.45 0 0 0 2.12 2c.22.09.5-.22.59-.44s-.53-.46-1.53-1.46zm-1.43 1a19.8 19.8 0 0 1 -1.88-2.88 3.79 3.79 0 0 0 -.91.35c-.18.15.32 1 1.29 2.09s2.31 2.37 2.62 2.34a.47.47 0 0 0 .47-.37c.1-.16-.46-.28-1.55-1.5zm20.5 1.5c-2.63.15-1.79 2.78-.91 3.25s2.25.62 2.62-1-.23-2.31-1.67-2.22zm.93 2.28a.87.87 0 0 1 -1.53 0 1 1 0 0 1 .72-1.47 1 1 0 0 1 .81 1.47zm4.84-14.16c-3.46.81-4.31 3.16-3.25 5.59s2 2.6 3.94 2.19 4.41-2.28 3.72-4.94-1.92-3.43-4.43-2.84zm2.1 6.25c-1.6 1-2.35 1.25-3.88-.16s-1.87-4.09 1.5-5.15c.83-.26 2.63-.85 3.35 1.12s.6 3.19-.99 4.19zm5.82-9.77c-.22 0-.5.47-.53.69a16.87 16.87 0 0 0 2.41 2.37c.12.06.28-.31.28-.56a10.61 10.61 0 0 0 -2.16-2.5zm-2 2.12a37.28 37.28 0 0 0 3.32 3.47c.12.07.18-.31.21-.59s-3-3.3-3-3.5-.43.5-.5.61zm.38 2.29c-.13 0-.63.62-.63.71s2.88 2.94 3 3 .32-.46.32-.68a21.79 21.79 0 0 0 -2.66-3.04z" ></path></g></svg>