<?xml version="1.0" encoding="utf-8"?>
<!-- Generator: Adobe Illustrator 27.6.1, SVG Export Plug-In . SVG Version: 6.00 Build 0)  -->
<svg version="1.1" xmlns="http://www.w3.org/2000/svg" xmlns:xlink="http://www.w3.org/1999/xlink" x="0px" y="0px"
	 viewBox="0 0 800 800" style="enable-background:new 0 0 800 800;" xml:space="preserve">
<g id="Layer_1">
	<g id="XMLID_509_">
		<path id="XMLID_510_" d="M193.9,315.2h-36.4c-20.1,0-36.4,16.3-36.4,36.4v412.1c0,20.1,16.3,36.4,36.4,36.4h484.8
			c20.1,0,36.4-16.3,36.4-36.4V351.5c0-20.1-16.3-36.4-36.4-36.4h-36.4 M400,0 M436.4,569.7v48.5c0,20.1-16.3,36.4-36.4,36.4
			c-20.1,0-36.4-16.3-36.4-36.4v-48.5c-14.7-11.1-24.2-28.7-24.2-48.5c0-33.4,27.2-60.6,60.6-60.6s60.6,27.2,60.6,60.6
			C460.6,541,451.1,558.6,436.4,569.7z M533.3,315.2H266.7"/>
	</g>
</g>
</svg>
