<!--version="1.0" encoding="UTF-8"--><svg shape-rendering="geometricPrecision" text-rendering="geometricPrecision" viewBox="-200 -660 1400 1400" xmlns="http://www.w3.org/2000/svg"><g transform="matrix(.1 0 0 -.1 -.12673 51.004)"><path transform="matrix(.70711 -.70711 .70711 .70711 1387.9 3567.7)" d="M9289.8 4957.8c-1919-403.8-3853.5-1365.3-5059.1-2515.2l-146.1-140.4h-223c-926.8 0-2032.5-401.9-2917.1-1061.5-350-261.5-771.1-642.3-815.3-736.5C73.4 387.1 98.3 264 198.3 175.5c23.1-23.1 398-238.4 832.6-478.8s796.1-444.2 803.8-451.9c9.6-7.7-23.1-90.4-71.1-184.6-71.2-134.6-88.5-188.4-88.5-265.4v-96.1l909.5-915.3c498-501.9 936.5-934.5 969.2-959.5 92.3-67.3 223-50 407.7 53.9 78.8 44.2 151.9 76.9 161.5 73.1 9.6-1.9 217.3-365.4 463.4-805.7 244.2-440.3 463.4-821.1 482.6-842.2 86.5-96.1 211.5-121.1 326.9-65.4 107.7 50 548 551.9 817.2 930.7 615.3 861.5 980.7 1907.5 980.7 2801.7v223l130.8 136.5c880.7 930.7 1653.7 2263.3 2149.8 3713.1 228.8 663.4 451.9 1590.2 423 1747.9-25 128.8-146.1 225-284.6 221.1-34.5 0-180.7-24.9-323-53.8zm-38.4-634.5c0-98.1-323-1173-426.9-1419.1l-26.9-61.5-1067.2 1067.2 313.399 107.7c399.999 138.4 461.499 159.6 822.999 257.7 342.3 94.1 384.6 99.9 384.6 48zM7866.9 2965.7l699.9-699.9-176.9-355.8C7432.3-26.4 6232.4-1218.6 3990.3-2462.7c-117.3-65.4-221.1-119.2-230.7-119.2-25 0-1449.9 1428.7-1449.9 1453.7 0 32.7 471.1 848 671.1 1159.5 1049.9 1642.2 2144.1 2636.3 3809.3 3463.2 192.3 94.2 355.7 173.1 361.5 173.1 7.7-.1 328.8-315.4 715.3-701.9zm-4345.8-1248c0-3.9-57.7-75-126.9-157.7C3055.8 1156.2 2650 579.3 2311.6 17.8l-178.8-292.3-59.6 36.5c-34.6 19.2-315.4 175-623 348.1-309.6 171.1-567.3 319.2-573 326.9-17.3 28.8 342.3 315.4 646.1 517.3C1979 1258.1 2479 1486.9 2952 1611.9c261.5 67.4 569.1 125 569.1 105.8zm3057.4-3311.2c-111.5-623-355.7-1213.3-740.3-1786.4-171.2-257.7-475-644.2-505.7-644.2-7.7 0-140.4 232.7-296.1 515.3-157.7 282.7-315.4 567.3-351.9 632.6l-65.4 119.2 215.4 128.8c544.2 326.9 1126.8 730.7 1538.3 1067.2 126.9 105.8 234.6 188.4 238.4 184.6 2-3.7-11.5-101.8-32.7-217.1z"/><path transform="matrix(.70711 -.70711 .70711 .70711 1386.3 3566.9)" d="M6449.7 2833c-434.6-105.8-759.5-500-788.4-953.8-38.5-623 480.7-1148 1099.9-1109.5 648 40.4 1099.9 630.7 969.1 1267.2-76.9 369.2-390.4 698-759.5 792.2-140.4 36.6-380.7 38.5-521.1 3.9zm465.4-580.7c94.2-44.2 184.6-134.6 230.8-230.7 53.8-107.7 51.9-317.3-3.9-423-101.9-192.3-323-301.9-524.9-261.5-196.1 42.3-346.1 192.3-388.4 388.4-48.1 238.4 101.9 478.8 350 559.6 72.9 24.9 255.6 5.6 336.4-32.8z"/><path transform="matrix(.70711 -.70711 .70711 .70711 1386.7 3567.8)" d="M1357.9-1878.1c-30.8-15.4-307.7-276.9-611.5-582.6C233-2976.1 190.6-3024.2 181-3097.2c-21.1-153.8 103.8-269.2 267.3-248.1 75 9.6 117.3 48.1 634.6 565.3 386.5 386.5 559.6 573 574.9 619.2 59.6 178.8-130.7 359.6-299.9 282.7z"/><path transform="matrix(.70711 -.70711 .70711 .70711 1386.3 3566.8)" d="M1473.2-3103c-59.6-32.7-1105.7-1078.8-1136.4-1136.5-86.5-165.4 67.3-367.3 253.8-334.6 65.4 11.5 142.3 82.7 636.5 574.9 492.3 494.2 563.4 571.1 574.9 636.5 32.7 180.8-173 344.3-328.8 259.7z"/><path transform="matrix(.70711 -.70711 .70711 .70711 1386.3 3566.9)" d="M2684.7-3253c-30.8-19.2-301.9-282.7-600-582.6-542.3-544.2-544.2-546.1-544.2-626.9 0-111.5 42.3-184.6 126.9-225 148.1-69.2 153.8-65.4 763.4 542.3 303.8 303.8 563.4 571.1 575 590.3 30.8 55.8 21.1 175-15.4 234.6-36.5 55.8-132.7 103.8-203.8 103.8-25 0-69.2-17.3-101.9-36.5z"/></g></svg>